# Blender v3.1.2 OBJ File: 'viennese-street-objects.blend'
# www.blender.org
o Arc_Lamp_Arc_Lamp_Mesh
v 5.418449 10.407681 0.253982
v 5.417772 10.288707 0.181263
v 5.417489 10.239429 0.005710
v 5.462091 10.288707 -0.169849
v 5.462706 10.407681 -0.242558
v 5.892246 10.406662 0.375556
v 5.891242 10.229429 0.267230
v 5.890816 10.156021 0.005710
v 5.891288 10.229429 -0.255811
v 5.892200 10.406662 -0.364128
v 6.414629 10.405423 0.235624
v 6.414062 10.295248 0.168281
v 6.413823 10.249616 0.005710
v 6.414062 10.295248 -0.156862
v 6.414629 10.405423 -0.224196
v 6.498201 10.405154 0.081172
v 6.498014 10.368994 0.059069
v 6.497935 10.354015 0.005714
v 6.498014 10.368994 -0.047646
v 6.498201 10.405154 -0.069748
v 2.839642 0.000042 0.078927
v 2.918569 0.000010 0.111621
v 2.997496 -0.000023 0.078927
v 3.030188 -0.000036 0.000000
v 2.997496 -0.000023 -0.078927
v 2.918569 0.000010 -0.111616
v 2.839642 0.000042 -0.078927
v 2.806950 0.000056 0.000000
v 2.839816 0.810521 0.078927
v 2.918743 0.810455 0.111621
v 2.997670 0.810390 0.078927
v 3.030362 0.810363 0.000000
v 2.997670 0.810390 -0.078927
v 2.918743 0.810455 -0.111616
v 2.839816 0.810521 -0.078927
v 2.807124 0.810547 0.000000
v 2.840278 1.569859 0.078927
v 2.919205 1.569767 0.111621
v 2.998132 1.569675 0.078927
v 3.030824 1.569636 0.000000
v 2.998132 1.569675 -0.078927
v 2.919205 1.569767 -0.111616
v 2.840278 1.569859 -0.078927
v 2.807586 1.569898 0.000000
v 2.840932 2.288282 0.078927
v 2.919858 2.288171 0.111621
v 2.998785 2.288059 0.078927
v 3.031477 2.288013 0.000000
v 2.998785 2.288059 -0.078927
v 2.919858 2.288171 -0.111616
v 2.840932 2.288282 -0.078927
v 2.808240 2.288328 0.000000
v 2.841679 2.976012 0.078927
v 2.920606 2.975893 0.111621
v 2.999533 2.975774 0.078927
v 3.032225 2.975724 0.000000
v 2.999533 2.975774 -0.078927
v 2.920606 2.975893 -0.111616
v 2.841679 2.976012 -0.078927
v 2.808987 2.976062 0.000000
v 2.842427 3.643279 0.078927
v 2.921354 3.643162 0.111621
v 3.000281 3.643046 0.078927
v 3.032973 3.642998 0.000000
v 3.000281 3.643046 -0.078927
v 2.921354 3.643162 -0.111616
v 2.842427 3.643279 -0.078927
v 2.809735 3.643327 0.000000
v 2.843080 4.300305 0.078927
v 2.922007 4.300206 0.111621
v 3.000934 4.300107 0.078927
v 3.033626 4.300066 0.000000
v 3.000934 4.300107 -0.078927
v 2.922007 4.300206 -0.111616
v 2.843080 4.300305 -0.078927
v 2.810388 4.300346 0.000000
v 2.843542 4.957317 0.078927
v 2.922469 4.957247 0.111621
v 3.001396 4.957176 0.078927
v 3.034088 4.957148 0.000000
v 3.001396 4.957176 -0.078927
v 2.922469 4.957247 -0.111616
v 2.843542 4.957317 -0.078927
v 2.810850 4.957346 0.000000
v 2.843716 5.624547 0.078927
v 2.922643 5.624516 0.111621
v 3.001570 5.624485 0.078927
v 3.034262 5.624473 0.000000
v 3.001570 5.624485 -0.078927
v 2.922643 5.624516 -0.111616
v 2.843716 5.624547 -0.078927
v 2.811024 5.624560 0.000000
v 2.843508 6.312222 0.078927
v 2.922435 6.312238 0.111621
v 3.001362 6.312255 0.078927
v 3.034054 6.312263 0.000000
v 3.001362 6.312255 -0.078927
v 2.922435 6.312238 -0.111616
v 2.843508 6.312222 -0.078927
v 2.810816 6.312214 0.000000
v 2.842824 7.030570 0.078927
v 2.921750 7.030640 0.111621
v 3.000677 7.030710 0.078927
v 3.033369 7.030739 0.000000
v 3.000677 7.030710 -0.078927
v 2.921750 7.030640 -0.111616
v 2.842824 7.030570 -0.078927
v 2.810132 7.030540 0.000000
v 2.841565 7.789823 0.078927
v 2.920492 7.789949 0.111621
v 2.999419 7.790075 0.078927
v 3.032111 7.790128 0.000000
v 2.999419 7.790075 -0.078927
v 2.920492 7.789949 -0.111616
v 2.841565 7.789823 -0.078927
v 2.808874 7.789770 0.000000
v 2.839693 8.603225 0.078927
v 2.918569 8.600392 0.111621
v 2.997445 8.597559 0.078927
v 3.030118 8.596386 0.000000
v 2.997445 8.597559 -0.078927
v 2.918569 8.600392 -0.111616
v 2.839693 8.603225 -0.078927
v 2.807020 8.604399 0.000000
v 2.861193 8.893037 0.078927
v 2.939186 8.880931 0.111621
v 3.017179 8.868825 0.078927
v 3.049484 8.863810 0.000000
v 3.017179 8.868825 -0.078927
v 2.939186 8.880931 -0.111616
v 2.861193 8.893037 -0.078927
v 2.828888 8.898052 0.000000
v 2.925849 9.164409 0.078927
v 3.000837 9.139788 0.111621
v 3.075825 9.115167 0.078927
v 3.106887 9.104969 0.000000
v 3.075825 9.115167 -0.078927
v 3.000837 9.139788 -0.111616
v 2.925849 9.164409 -0.078927
v 2.894787 9.174606 0.000000
v 3.030940 9.413083 0.078927
v 3.100841 9.376429 0.111621
v 3.170739 9.339773 0.078927
v 3.199693 9.324590 0.000000
v 3.170742 9.339773 -0.078927
v 3.100841 9.376429 -0.111616
v 3.030940 9.413083 -0.078927
v 3.001989 9.428267 0.000000
v 3.173458 9.637784 0.078927
v 3.236517 9.590318 0.111621
v 3.299576 9.542851 0.078927
v 3.325695 9.523190 0.000000
v 3.299576 9.542851 -0.078927
v 3.236517 9.590318 -0.111616
v 3.173458 9.637784 -0.078927
v 3.147340 9.657446 0.000000
v 3.350149 9.837500 0.078927
v 3.405183 9.780924 0.111621
v 3.460217 9.724349 0.078927
v 3.483014 9.700915 0.000000
v 3.460217 9.724349 -0.078927
v 3.405183 9.780924 -0.111616
v 3.350149 9.837500 -0.078927
v 3.327352 9.860932 0.000000
v 3.557719 10.011536 0.078927
v 3.604155 9.947713 0.111621
v 3.650591 9.883889 0.078927
v 3.669824 9.857453 0.000000
v 3.650591 9.883889 -0.078927
v 3.604155 9.947713 -0.111616
v 3.557719 10.011536 -0.078927
v 3.538486 10.037971 0.000000
v 3.793000 10.159461 0.078927
v 3.830753 10.090148 0.111621
v 3.868506 10.020836 0.078927
v 3.884145 9.992126 0.000000
v 3.868506 10.020836 -0.078927
v 3.830753 10.090148 -0.111616
v 3.793000 10.159461 -0.078927
v 3.777362 10.188170 0.000000
v 4.052984 10.280982 0.078927
v 4.082294 10.207699 0.111621
v 4.111604 10.134417 0.078927
v 4.123744 10.104061 0.000000
v 4.111604 10.134417 -0.078927
v 4.082294 10.207699 -0.111616
v 4.052984 10.280982 -0.078927
v 4.040844 10.311337 0.000000
v 4.334832 10.375840 0.078927
v 4.356097 10.299830 0.111621
v 4.377363 10.223822 0.078927
v 4.386172 10.192339 0.000000
v 4.377363 10.223822 -0.078927
v 4.356097 10.299830 -0.111616
v 4.334832 10.375840 -0.078927
v 4.326023 10.407322 0.000000
v 4.635806 10.443742 0.078927
v 4.649480 10.366008 0.111621
v 4.663154 10.288274 0.078927
v 4.668818 10.256075 0.000000
v 4.663154 10.288274 -0.078927
v 4.649480 10.366008 -0.111616
v 4.635806 10.443742 -0.078927
v 4.630143 10.475941 0.000000
v 4.953241 10.484355 0.078927
v 4.959762 10.405697 0.111621
v 4.966281 10.327038 0.078927
v 4.968982 10.294457 0.000000
v 4.966281 10.327038 -0.078927
v 4.959762 10.405697 -0.111616
v 4.953241 10.484355 -0.078927
v 4.950541 10.516935 0.000000
v 5.247210 10.519572 0.101083
v 5.246857 10.418489 0.142956
v 5.246501 10.317407 0.101083
v 5.246353 10.275538 0.000000
v 5.246501 10.317407 -0.101083
v 5.246857 10.418489 -0.142951
v 5.247210 10.519572 -0.101083
v 5.247357 10.561443 0.000000
v 5.418166 10.548648 0.194056
v 5.417489 10.417135 0.274440
v 5.416811 10.285625 0.194056
v 5.416526 10.231152 0.000000
v 5.416811 10.285625 -0.194056
v 5.417489 10.417135 -0.274430
v 5.418166 10.548648 -0.194056
v 5.418452 10.603120 0.000000
v 5.893255 10.611921 0.289081
v 5.892246 10.416010 0.408826
v 5.892246 10.416010 -0.408812
v 5.893255 10.611921 -0.289081
v 5.893681 10.693068 0.000000
v 6.470360 10.536427 0.179705
v 6.469731 10.414640 0.254147
v 6.469731 10.414640 -0.254132
v 6.470360 10.536427 -0.179705
v 6.470623 10.586870 0.000000
v 6.562315 10.454319 0.058987
v 6.562109 10.414346 0.083417
v 6.562109 10.414346 -0.083407
v 6.562315 10.454319 -0.058977
v 6.562402 10.470877 0.000005
vn 1.0000 -0.0052 -0.0000
vn -0.0024 -1.0000 0.0000
vn -0.0004 -1.0000 0.0000
vn -0.2150 -0.5084 0.8338
vn -0.2038 -0.7906 0.5775
vn 0.0022 -0.7880 0.6157
vn 0.0033 -0.5215 0.8532
vn -0.1781 -0.9839 0.0140
vn -0.0012 -1.0000 -0.0043
vn -0.2164 -0.7980 -0.5624
vn -0.0056 -0.7851 -0.6194
vn -0.2360 -0.5058 -0.8297
vn -0.0065 -0.5214 -0.8533
vn 0.5248 -0.6780 0.5147
vn 0.5005 -0.4534 0.7375
vn 0.4847 -0.8747 0.0000
vn 0.5248 -0.6780 -0.5147
vn 0.5005 -0.4533 -0.7375
vn 0.9280 -0.1977 -0.3157
vn 0.9280 -0.1978 0.3157
vn 0.9314 -0.3099 0.1908
vn 0.9233 -0.3842 0.0000
vn 0.9314 -0.3099 -0.1908
vn -0.5492 -0.6301 0.5490
vn -0.7071 0.0003 0.7071
vn -1.0000 0.0004 0.0000
vn -0.7766 -0.6300 0.0000
vn -0.0002 -0.6303 0.7764
vn -0.0000 0.0000 1.0000
vn 0.5488 -0.6304 0.5490
vn 0.7071 -0.0003 0.7071
vn 0.7762 -0.6305 0.0000
vn 1.0000 -0.0004 0.0000
vn 0.5488 -0.6304 -0.5490
vn 0.7071 -0.0003 -0.7071
vn -0.0002 -0.6303 -0.7764
vn -0.0000 0.0000 -1.0000
vn -0.5492 -0.6301 -0.5490
vn -0.7071 0.0003 -0.7071
vn -0.7071 0.0005 0.7071
vn -1.0000 0.0008 0.0000
vn 0.7071 -0.0005 0.7071
vn 1.0000 -0.0008 0.0000
vn 0.7071 -0.0005 -0.7071
vn -0.7071 0.0005 -0.7071
vn -0.7071 0.0007 0.7071
vn -1.0000 0.0010 -0.0000
vn 0.7071 -0.0007 0.7071
vn 1.0000 -0.0010 0.0000
vn 0.7071 -0.0007 -0.7071
vn -0.7071 0.0007 -0.7071
vn -0.7071 0.0008 0.7071
vn -1.0000 0.0011 -0.0000
vn 0.7071 -0.0008 0.7071
vn 1.0000 -0.0011 0.0000
vn 0.7071 -0.0008 -0.7071
vn -0.7071 0.0008 -0.7071
vn -0.7071 0.0006 0.7071
vn 0.7071 -0.0006 0.7071
vn 0.7071 -0.0006 -0.7071
vn -0.7071 0.0006 -0.7071
vn -1.0000 0.0005 0.0000
vn 0.0001 0.0000 1.0000
vn 1.0000 -0.0005 -0.0000
vn 0.0001 0.0000 -1.0000
vn -0.7071 -0.0000 0.7071
vn -1.0000 -0.0000 0.0000
vn 0.7072 0.0000 0.7071
vn 1.0000 0.0000 0.0000
vn 0.7071 0.0000 -0.7071
vn -0.7071 -0.0000 -0.7072
vn -0.7071 -0.0004 0.7071
vn -1.0000 -0.0006 -0.0000
vn 0.7072 0.0004 0.7071
vn 1.0000 0.0006 0.0000
vn 0.7071 0.0004 -0.7071
vn -0.7071 -0.0004 -0.7072
vn -0.7071 -0.0009 0.7071
vn -1.0000 -0.0013 0.0000
vn 0.7072 0.0009 0.7071
vn 1.0000 0.0013 0.0000
vn 0.7071 0.0009 -0.7071
vn -0.7071 -0.0009 -0.7072
vn -0.7071 -0.0014 0.7071
vn -1.0000 -0.0020 -0.0000
vn 0.7072 0.0014 0.7070
vn 1.0000 0.0021 0.0000
vn 0.7072 0.0014 -0.7070
vn -0.7071 -0.0014 -0.7071
vn -0.7114 0.0255 0.7024
vn -0.9994 0.0359 0.0000
vn -0.0092 0.0004 1.0000
vn 0.7022 -0.0247 0.7116
vn 0.9994 -0.0350 -0.0000
vn 0.7022 -0.0247 -0.7116
vn -0.0092 0.0004 -1.0000
vn -0.7113 0.0255 -0.7024
vn -0.7080 0.1099 0.6976
vn -0.9882 0.1534 -0.0000
vn -0.0193 0.0031 0.9998
vn 0.6887 -0.1063 0.7172
vn 0.9883 -0.1525 0.0000
vn 0.6887 -0.1063 -0.7172
vn -0.0193 0.0031 -0.9998
vn -0.7080 0.1099 -0.6977
vn -0.6812 0.2234 0.6972
vn -0.9502 0.3116 -0.0000
vn -0.0192 0.0063 0.9998
vn 0.6620 -0.2170 0.7174
vn 0.9503 -0.3115 0.0000
vn 0.6620 -0.2170 -0.7174
vn -0.0192 0.0063 -0.9998
vn -0.6812 0.2234 -0.6972
vn -0.6350 0.3327 0.6972
vn -0.8858 0.4640 -0.0000
vn -0.0179 0.0093 0.9998
vn 0.6172 -0.3233 0.7173
vn 0.8858 -0.4641 0.0000
vn 0.6172 -0.3233 -0.7173
vn -0.0179 0.0093 -0.9998
vn -0.6350 0.3326 -0.6972
vn -0.5727 0.4306 0.6976
vn -0.7992 0.6010 -0.0000
vn -0.0155 0.0116 0.9998
vn 0.5571 -0.4191 0.7169
vn 0.7991 -0.6011 0.0000
vn 0.5571 -0.4191 -0.7169
vn -0.0155 0.0116 -0.9998
vn -0.5727 0.4306 -0.6976
vn -0.4995 0.5129 0.6982
vn -0.6977 0.7164 0.0000
vn -0.0127 0.0130 0.9998
vn 0.4867 -0.5000 0.7163
vn 0.6975 -0.7166 0.0000
vn 0.4867 -0.5000 -0.7163
vn -0.0127 0.0130 -0.9998
vn -0.4995 0.5129 -0.6982
vn -0.4211 0.5781 0.6989
vn -0.5888 0.8083 0.0000
vn -0.0098 0.0134 0.9999
vn 0.4112 -0.5648 0.7155
vn 0.5886 -0.8085 0.0000
vn 0.4112 -0.5648 -0.7155
vn -0.0098 0.0134 -0.9999
vn -0.4211 0.5781 -0.6989
vn -0.3421 0.6273 0.6996
vn -0.4788 0.8779 0.0000
vn -0.0073 0.0132 0.9999
vn 0.3347 -0.6141 0.7147
vn 0.4786 -0.8780 -0.0000
vn 0.3347 -0.6141 -0.7147
vn -0.0073 0.0132 -0.9999
vn -0.3421 0.6273 -0.6996
vn -0.2654 0.6627 0.7003
vn -0.3718 0.9283 0.0000
vn -0.0051 0.0127 0.9999
vn 0.2602 -0.6500 0.7140
vn 0.3717 -0.9284 -0.0000
vn 0.2602 -0.6500 -0.7140
vn -0.0051 0.0127 -0.9999
vn -0.2654 0.6627 -0.7003
vn -0.1925 0.6868 0.7009
vn -0.2699 0.9629 0.0000
vn -0.0034 0.0120 0.9999
vn 0.1891 -0.6748 0.7134
vn 0.2698 -0.9629 0.0000
vn 0.1890 -0.6748 -0.7134
vn -0.0034 0.0120 -0.9999
vn -0.1925 0.6868 -0.7009
vn -0.1238 0.7020 0.7014
vn -0.1737 0.9848 0.0000
vn -0.0020 0.0114 0.9999
vn 0.1218 -0.6906 0.7129
vn 0.1736 -0.9848 0.0000
vn 0.1217 -0.6906 -0.7129
vn -0.0020 0.0113 -0.9999
vn -0.1238 0.7019 -0.7014
vn -0.1142 0.7052 0.6998
vn -0.1380 0.9904 -0.0000
vn -0.0558 0.0079 0.9984
vn 0.0036 -0.7018 0.7123
vn 0.0286 -0.9996 -0.0000
vn 0.0036 -0.7018 -0.7123
vn -0.0558 0.0079 -0.9984
vn -0.1142 0.7052 -0.6998
vn -0.2877 0.7324 0.6171
vn -0.2209 0.9753 -0.0000
vn -0.3728 0.0059 0.9279
vn -0.2675 -0.7316 0.6271
vn -0.1905 -0.9817 -0.0000
vn -0.2675 -0.7316 -0.6271
vn -0.3728 0.0059 -0.9279
vn -0.2877 0.7324 -0.6171
vn -0.2001 -0.2790 0.9392
vn -0.3306 0.7320 0.5957
vn -0.0073 -0.4353 0.9003
vn -0.0035 0.7876 0.6162
vn 0.4460 -0.6537 0.6113
vn 0.5334 -0.8458 -0.0000
vn 0.4460 -0.6537 -0.6113
vn -0.2001 -0.2790 -0.9392
vn -0.3306 0.7320 -0.5958
vn -0.2329 0.9725 0.0000
vn 0.5017 -0.4473 0.7404
vn 0.5296 0.6739 0.5152
vn -0.0035 0.7876 -0.6162
vn -0.0073 -0.4353 -0.9002
vn -0.0023 1.0000 0.0000
vn 0.7685 -0.5838 0.2618
vn 0.9343 0.3009 0.1910
vn 0.5296 0.6738 -0.5152
vn 0.5017 -0.4473 -0.7404
vn 0.4907 0.8713 -0.0000
vn 0.9343 0.3009 -0.1910
vn 0.7685 -0.5838 -0.2618
vn 0.9269 0.3754 0.0000
s off
f 225//1 226//1 222//1 223//1 224//1
f 230//2 222//2 226//2 231//2 236//2 241//2 240//2 235//2
f 25//3 24//3 23//3 22//3 21//3 28//3 27//3 26//3
s 1
f 1//4 2//5 7//6 6//7
f 2//5 3//8 8//9 7//6
f 3//8 4//10 9//11 8//9
f 4//10 5//12 10//13 9//11
f 6//7 7//6 12//14 11//15
f 7//6 8//9 13//16 12//14
f 8//9 9//11 14//17 13//16
f 9//11 10//13 15//18 14//17
f 20//19 16//20 17//21 18//22 19//23
f 11//15 12//14 17//21 16//20
f 12//14 13//16 18//22 17//21
f 13//16 14//17 19//23 18//22
f 14//17 15//18 20//19 19//23
f 21//24 29//25 36//26 28//27
f 22//28 30//29 29//25 21//24
f 23//30 31//31 30//29 22//28
f 24//32 32//33 31//31 23//30
f 25//34 33//35 32//33 24//32
f 26//36 34//37 33//35 25//34
f 27//38 35//39 34//37 26//36
f 28//27 36//26 35//39 27//38
f 29//25 37//40 44//41 36//26
f 30//29 38//29 37//40 29//25
f 31//31 39//42 38//29 30//29
f 32//33 40//43 39//42 31//31
f 33//35 41//44 40//43 32//33
f 34//37 42//37 41//44 33//35
f 35//39 43//45 42//37 34//37
f 36//26 44//41 43//45 35//39
f 37//40 45//46 52//47 44//41
f 38//29 46//29 45//46 37//40
f 39//42 47//48 46//29 38//29
f 40//43 48//49 47//48 39//42
f 41//44 49//50 48//49 40//43
f 42//37 50//37 49//50 41//44
f 43//45 51//51 50//37 42//37
f 44//41 52//47 51//51 43//45
f 45//46 53//52 60//53 52//47
f 46//29 54//29 53//52 45//46
f 47//48 55//54 54//29 46//29
f 48//49 56//55 55//54 47//48
f 49//50 57//56 56//55 48//49
f 50//37 58//37 57//56 49//50
f 51//51 59//57 58//37 50//37
f 52//47 60//53 59//57 51//51
f 53//52 61//46 68//53 60//53
f 54//29 62//29 61//46 53//52
f 55//54 63//48 62//29 54//29
f 56//55 64//55 63//48 55//54
f 57//56 65//50 64//55 56//55
f 58//37 66//37 65//50 57//56
f 59//57 67//51 66//37 58//37
f 60//53 68//53 67//51 59//57
f 61//46 69//58 76//41 68//53
f 62//29 70//29 69//58 61//46
f 63//48 71//59 70//29 62//29
f 64//55 72//43 71//59 63//48
f 65//50 73//60 72//43 64//55
f 66//37 74//37 73//60 65//50
f 67//51 75//61 74//37 66//37
f 68//53 76//41 75//61 67//51
f 69//58 77//25 84//62 76//41
f 70//29 78//63 77//25 69//58
f 71//59 79//31 78//63 70//29
f 72//43 80//64 79//31 71//59
f 73//60 81//35 80//64 72//43
f 74//37 82//65 81//35 73//60
f 75//61 83//39 82//65 74//37
f 76//41 84//62 83//39 75//61
f 77//25 85//66 92//67 84//62
f 78//63 86//63 85//66 77//25
f 79//31 87//68 86//63 78//63
f 80//64 88//69 87//68 79//31
f 81//35 89//70 88//69 80//64
f 82//65 90//65 89//70 81//35
f 83//39 91//71 90//65 82//65
f 84//62 92//67 91//71 83//39
f 85//66 93//72 100//73 92//67
f 86//63 94//63 93//72 85//66
f 87//68 95//74 94//63 86//63
f 88//69 96//75 95//74 87//68
f 89//70 97//76 96//75 88//69
f 90//65 98//65 97//76 89//70
f 91//71 99//77 98//65 90//65
f 92//67 100//73 99//77 91//71
f 93//72 101//78 108//79 100//73
f 94//63 102//63 101//78 93//72
f 95//74 103//80 102//63 94//63
f 96//75 104//81 103//80 95//74
f 97//76 105//82 104//81 96//75
f 98//65 106//65 105//82 97//76
f 99//77 107//83 106//65 98//65
f 100//73 108//79 107//83 99//77
f 101//78 109//84 116//85 108//79
f 102//63 110//63 109//84 101//78
f 103//80 111//86 110//63 102//63
f 104//81 112//87 111//86 103//80
f 105//82 113//88 112//87 104//81
f 106//65 114//65 113//88 105//82
f 107//83 115//89 114//65 106//65
f 108//79 116//85 115//89 107//83
f 109//84 117//90 124//91 116//85
f 110//63 118//92 117//90 109//84
f 111//86 119//93 118//92 110//63
f 112//87 120//94 119//93 111//86
f 113//88 121//95 120//94 112//87
f 114//65 122//96 121//95 113//88
f 115//89 123//97 122//96 114//65
f 116//85 124//91 123//97 115//89
f 117//90 125//98 132//99 124//91
f 118//92 126//100 125//98 117//90
f 119//93 127//101 126//100 118//92
f 120//94 128//102 127//101 119//93
f 121//95 129//103 128//102 120//94
f 122//96 130//104 129//103 121//95
f 123//97 131//105 130//104 122//96
f 124//91 132//99 131//105 123//97
f 125//98 133//106 140//107 132//99
f 126//100 134//108 133//106 125//98
f 127//101 135//109 134//108 126//100
f 128//102 136//110 135//109 127//101
f 129//103 137//111 136//110 128//102
f 130//104 138//112 137//111 129//103
f 131//105 139//113 138//112 130//104
f 132//99 140//107 139//113 131//105
f 133//106 141//114 148//115 140//107
f 134//108 142//116 141//114 133//106
f 135//109 143//117 142//116 134//108
f 136//110 144//118 143//117 135//109
f 137//111 145//119 144//118 136//110
f 138//112 146//120 145//119 137//111
f 139//113 147//121 146//120 138//112
f 140//107 148//115 147//121 139//113
f 141//114 149//122 156//123 148//115
f 142//116 150//124 149//122 141//114
f 143//117 151//125 150//124 142//116
f 144//118 152//126 151//125 143//117
f 145//119 153//127 152//126 144//118
f 146//120 154//128 153//127 145//119
f 147//121 155//129 154//128 146//120
f 148//115 156//123 155//129 147//121
f 149//122 157//130 164//131 156//123
f 150//124 158//132 157//130 149//122
f 151//125 159//133 158//132 150//124
f 152//126 160//134 159//133 151//125
f 153//127 161//135 160//134 152//126
f 154//128 162//136 161//135 153//127
f 155//129 163//137 162//136 154//128
f 156//123 164//131 163//137 155//129
f 157//130 165//138 172//139 164//131
f 158//132 166//140 165//138 157//130
f 159//133 167//141 166//140 158//132
f 160//134 168//142 167//141 159//133
f 161//135 169//143 168//142 160//134
f 162//136 170//144 169//143 161//135
f 163//137 171//145 170//144 162//136
f 164//131 172//139 171//145 163//137
f 165//138 173//146 180//147 172//139
f 166//140 174//148 173//146 165//138
f 167//141 175//149 174//148 166//140
f 168//142 176//150 175//149 167//141
f 169//143 177//151 176//150 168//142
f 170//144 178//152 177//151 169//143
f 171//145 179//153 178//152 170//144
f 172//139 180//147 179//153 171//145
f 173//146 181//154 188//155 180//147
f 174//148 182//156 181//154 173//146
f 175//149 183//157 182//156 174//148
f 176//150 184//158 183//157 175//149
f 177//151 185//159 184//158 176//150
f 178//152 186//160 185//159 177//151
f 179//153 187//161 186//160 178//152
f 180//147 188//155 187//161 179//153
f 181//154 189//162 196//163 188//155
f 182//156 190//164 189//162 181//154
f 183//157 191//165 190//164 182//156
f 184//158 192//166 191//165 183//157
f 185//159 193//167 192//166 184//158
f 186//160 194//168 193//167 185//159
f 187//161 195//169 194//168 186//160
f 188//155 196//163 195//169 187//161
f 189//162 197//170 204//171 196//163
f 190//164 198//172 197//170 189//162
f 191//165 199//173 198//172 190//164
f 192//166 200//174 199//173 191//165
f 193//167 201//175 200//174 192//166
f 194//168 202//176 201//175 193//167
f 195//169 203//177 202//176 194//168
f 196//163 204//171 203//177 195//169
f 197//170 205//178 212//179 204//171
f 198//172 206//180 205//178 197//170
f 199//173 207//181 206//180 198//172
f 200//174 208//182 207//181 199//173
f 201//175 209//183 208//182 200//174
f 202//176 210//184 209//183 201//175
f 203//177 211//185 210//184 202//176
f 204//171 212//179 211//185 203//177
f 205//178 213//186 220//187 212//179
f 206//180 214//188 213//186 205//178
f 207//181 215//189 214//188 206//180
f 208//182 216//190 215//189 207//181
f 209//183 217//191 216//190 208//182
f 210//184 218//192 217//191 209//183
f 211//185 219//193 218//192 210//184
f 212//179 220//187 219//193 211//185
f 213//186 214//188 222//194 221//195
f 221//195 222//194 230//196 229//197
f 214//188 215//189 223//198 222//194
f 215//189 216//190 224//199 223//198
f 216//190 217//191 225//200 224//199
f 217//191 218//192 226//201 225//200
f 218//192 219//193 227//202 226//201
f 220//187 213//186 221//195 228//203
f 219//193 220//187 228//203 227//202
f 229//197 230//196 235//204 234//205
f 226//201 227//202 232//206 231//207
f 228//203 221//195 229//197 233//208
f 227//202 228//203 233//208 232//206
f 234//205 235//204 240//209 239//210
f 231//207 232//206 237//211 236//212
f 233//208 229//197 234//205 238//213
f 232//206 233//208 238//213 237//211
f 236//212 237//211 242//214 241//215
f 238//213 234//205 239//210 243//216
f 237//211 238//213 243//216 242//214
f 242//214 243//216 239//210 240//209 241//215
