# Blender v3.1.2 OBJ File: 'viennese-street-objects.blend'
# www.blender.org
o Bus_Post_Bus_Post_Mesh
v -5.584839 0.865095 0.135369
v -5.606912 0.865095 0.135369
v -5.606912 0.865095 -0.133883
v -5.584839 0.865095 -0.133883
v -5.584839 1.508163 0.135369
v -5.606912 1.508163 0.135369
v -5.606912 1.508163 -0.133883
v -5.584839 1.508163 -0.133883
v -5.552939 1.754140 0.315243
v -5.552939 1.763545 0.324286
v -5.552939 1.756894 0.321638
v -5.552939 1.763545 0.043237
v -5.552939 1.754140 0.052280
v -5.552939 1.756894 0.045886
v -5.552938 1.797444 0.324286
v -5.552938 1.806849 0.315243
v -5.552938 1.804094 0.321638
v -5.552939 1.806849 0.052280
v -5.552939 1.797444 0.043237
v -5.552939 1.804094 0.045886
v -5.562374 1.763545 0.324286
v -5.562374 1.754140 0.315243
v -5.562374 1.756894 0.321638
v -5.562374 1.754140 0.052280
v -5.562374 1.763545 0.043237
v -5.562374 1.756894 0.045886
v -5.562374 1.806849 0.315243
v -5.562374 1.797444 0.324286
v -5.562374 1.804094 0.321638
v -5.562374 1.797444 0.043237
v -5.562374 1.806849 0.052280
v -5.562374 1.804094 0.045886
v -5.435232 1.858050 -0.009376
v -5.435232 1.858050 0.009376
v -5.405091 1.852055 -0.009376
v -5.405091 1.852055 0.009376
v -5.379539 1.834982 -0.009376
v -5.379539 1.834982 0.009376
v -5.362467 1.809430 -0.009376
v -5.362467 1.809430 0.009376
v -5.356472 1.779290 -0.009376
v -5.356472 1.779290 0.009376
v -5.362467 1.749150 -0.009376
v -5.362467 1.749150 0.009376
v -5.379539 1.723598 -0.009376
v -5.379539 1.723598 0.009376
v -5.405091 1.706525 -0.009376
v -5.405091 1.706525 0.009376
v -5.435232 1.700530 -0.009376
v -5.435232 1.700530 0.009376
v -5.465372 1.706525 -0.009376
v -5.465372 1.706525 0.009376
v -5.490924 1.723598 -0.009376
v -5.490924 1.723598 0.009376
v -5.507997 1.749150 -0.009376
v -5.507997 1.749150 0.009376
v -5.513992 1.779290 -0.009376
v -5.513992 1.779290 0.009376
v -5.507997 1.809430 -0.009376
v -5.507997 1.809430 0.009376
v -5.490924 1.834982 -0.009376
v -5.490924 1.834982 0.009376
v -5.465372 1.852055 -0.009376
v -5.465372 1.852055 0.009376
v -5.674143 1.858051 -0.009376
v -5.674143 1.858051 0.009376
v -5.644002 1.852055 -0.009376
v -5.644002 1.852055 0.009376
v -5.618451 1.834982 -0.009376
v -5.618451 1.834982 0.009376
v -5.601377 1.809431 -0.009376
v -5.601377 1.809431 0.009376
v -5.595382 1.779290 -0.009376
v -5.595382 1.779290 0.009376
v -5.601377 1.749150 -0.009376
v -5.601377 1.749150 0.009376
v -5.618451 1.723598 -0.009376
v -5.618451 1.723598 0.009376
v -5.644002 1.706525 -0.009376
v -5.644002 1.706525 0.009376
v -5.674143 1.700530 -0.009376
v -5.674143 1.700530 0.009376
v -5.704283 1.706525 -0.009376
v -5.704283 1.706525 0.009376
v -5.729835 1.723598 -0.009376
v -5.729835 1.723598 0.009376
v -5.746908 1.749150 -0.009376
v -5.746908 1.749150 0.009376
v -5.752903 1.779290 -0.009376
v -5.752903 1.779290 0.009376
v -5.746908 1.809431 -0.009376
v -5.746908 1.809431 0.009376
v -5.729835 1.834982 -0.009376
v -5.729835 1.834982 0.009376
v -5.704283 1.852055 -0.009376
v -5.704283 1.852055 0.009376
v -5.557778 0.000000 0.017535
v -5.557778 1.961888 0.017535
v -5.566778 0.000000 0.015123
v -5.566778 1.961888 0.015123
v -5.573367 0.000000 0.008535
v -5.573367 1.961888 0.008535
v -5.575778 0.000000 -0.000465
v -5.575778 1.961888 -0.000465
v -5.573367 0.000000 -0.009465
v -5.573367 1.961888 -0.009465
v -5.566779 0.000000 -0.016054
v -5.566779 1.961888 -0.016054
v -5.557778 0.000000 -0.018465
v -5.557778 1.961888 -0.018465
v -5.548779 0.000000 -0.016054
v -5.548779 1.961888 -0.016054
v -5.542190 0.000000 -0.009465
v -5.542190 1.961888 -0.009465
v -5.539778 0.000000 -0.000465
v -5.539778 1.961888 -0.000465
v -5.542190 0.000000 0.008535
v -5.542190 1.961888 0.008535
v -5.548779 0.000000 0.015123
v -5.548779 1.961888 0.015123
v -5.569760 1.804751 -0.021217
v -5.569760 1.760569 -0.021217
v -5.578531 1.804751 -0.012446
v -5.578531 1.760569 -0.012446
v -5.581741 1.804751 -0.000465
v -5.581741 1.760569 -0.000465
v -5.578531 1.804751 0.011516
v -5.578531 1.760569 0.011516
v -5.569760 1.804751 0.020287
v -5.569760 1.760569 0.020287
v -5.557778 1.760569 0.023497
v -5.557778 1.804751 0.023497
v -5.557778 1.804751 0.017535
v -5.557778 1.760569 0.017535
v -5.566778 1.760569 0.015123
v -5.566778 1.804751 0.015123
v -5.573367 1.760569 0.008535
v -5.573367 1.804751 0.008535
v -5.575778 1.760569 -0.000465
v -5.575778 1.804751 -0.000465
v -5.573367 1.760569 -0.009465
v -5.573367 1.804751 -0.009465
v -5.566779 1.760569 -0.016054
v -5.566779 1.804751 -0.016054
v -5.557778 1.760569 -0.018465
v -5.557778 1.804751 -0.018465
v -5.548779 1.760569 -0.016054
v -5.548779 1.804751 -0.016054
v -5.542190 1.760569 -0.009465
v -5.542190 1.804751 -0.009465
v -5.539778 1.760569 -0.000465
v -5.539778 1.804751 -0.000465
v -5.542190 1.760569 0.008535
v -5.542190 1.804751 0.008535
v -5.548779 1.804751 0.015123
v -5.548779 1.760569 0.015123
v -5.557778 1.760569 -0.024428
v -5.557778 1.804751 -0.024428
v -5.545797 1.760569 -0.021217
v -5.545797 1.804751 -0.021217
v -5.537026 1.760569 -0.012447
v -5.537026 1.804751 -0.012447
v -5.533816 1.760569 -0.000465
v -5.533816 1.804751 -0.000465
v -5.537026 1.760569 0.011516
v -5.537026 1.804751 0.011516
v -5.545797 1.804751 0.020287
v -5.545797 1.760569 0.020287
v -5.564370 1.794814 0.020768
v -5.564370 1.770506 0.020768
v -5.557778 1.770506 0.022535
v -5.557778 1.794814 0.022535
v -5.551187 1.794814 0.020768
v -5.551187 1.770506 0.020768
v -5.564370 1.794814 0.048090
v -5.564370 1.770506 0.048090
v -5.557778 1.770506 0.049856
v -5.557778 1.794814 0.049856
v -5.551187 1.794814 0.048090
v -5.551187 1.770506 0.048090
v -5.579002 1.795015 -0.007166
v -5.579002 1.770304 -0.007166
v -5.580798 1.795015 -0.000465
v -5.580798 1.770304 -0.000465
v -5.579002 1.795015 0.006236
v -5.579002 1.770304 0.006236
v -5.602196 1.795015 -0.007166
v -5.602196 1.770304 -0.007166
v -5.603992 1.795015 -0.000465
v -5.603992 1.770304 -0.000465
v -5.602196 1.795015 0.006236
v -5.602196 1.770304 0.006236
v -5.536500 1.771433 -0.006554
v -5.536500 1.793887 -0.006554
v -5.534868 1.771433 -0.000465
v -5.534868 1.793887 -0.000465
v -5.536500 1.771433 0.005624
v -5.536500 1.793887 0.005624
v -5.499424 1.771433 -0.006555
v -5.499424 1.793887 -0.006555
v -5.497792 1.771433 -0.000465
v -5.497792 1.793887 -0.000465
v -5.499424 1.771433 0.005624
v -5.499424 1.793887 0.005624
v -5.536821 1.961888 -0.009066
v -5.536821 1.961888 0.009066
v -6.126318 1.961889 -0.009066
v -6.126318 1.961889 0.009066
v -6.103882 2.074684 -0.009066
v -6.103882 2.074684 0.009066
v -6.039988 2.170307 -0.009066
v -6.039988 2.170307 0.009066
v -5.944365 2.234201 -0.009066
v -5.944365 2.234201 0.009066
v -5.831569 2.256637 -0.009066
v -5.831569 2.256637 0.009066
v -5.718774 2.234201 -0.009066
v -5.718774 2.234201 0.009066
v -5.623150 2.170307 -0.009066
v -5.623150 2.170307 0.009066
v -5.559257 2.074684 -0.009066
v -5.559257 2.074684 0.009066
v -6.111130 1.974354 -0.009066
v -6.092140 2.069821 -0.009066
v -6.092140 2.069821 0.009066
v -6.111130 1.974354 0.009066
v -6.031002 2.161321 -0.009066
v -6.031002 2.161321 0.009066
v -5.939501 2.222459 -0.009066
v -5.939501 2.222459 0.009066
v -5.831569 2.243928 -0.009066
v -5.831569 2.243928 0.009066
v -5.723637 2.222459 -0.009066
v -5.723637 2.222459 0.009066
v -5.632137 2.161320 -0.009066
v -5.632137 2.161320 0.009066
v -5.570999 2.069820 -0.009066
v -5.570999 2.069820 0.009066
v -5.552009 1.974353 -0.009066
v -5.552009 1.974353 0.009066
v -6.111130 1.974354 -0.002760
v -6.092140 2.069821 -0.002760
v -6.092140 2.069821 0.002760
v -6.111130 1.974354 0.002760
v -6.031002 2.161321 -0.002760
v -6.031002 2.161321 0.002760
v -5.939501 2.222459 -0.002760
v -5.939501 2.222459 0.002760
v -5.831569 2.243928 -0.002760
v -5.831569 2.243928 0.002760
v -5.723637 2.222459 -0.002760
v -5.723637 2.222459 0.002760
v -5.632137 2.161320 -0.002760
v -5.632137 2.161320 0.002760
v -5.570999 2.069820 -0.002760
v -5.570999 2.069820 0.002760
v -5.552009 1.974353 -0.002760
v -5.552009 1.974353 0.002760
v -5.956373 2.252482 -0.001916
v -5.951039 2.243968 -0.002031
v -5.914271 2.309216 -0.001916
v -5.831569 2.364450 -0.001916
v -5.748868 2.309215 -0.001916
v -5.706765 2.252482 -0.001916
v -5.712100 2.243968 -0.002031
v -5.771834 2.257241 -0.002031
v -5.831569 2.263613 -0.002031
v -5.891304 2.257241 -0.002031
v -5.956373 2.252482 0.001398
v -5.951039 2.243968 0.001513
v -5.914271 2.309216 0.001398
v -5.831569 2.364450 0.001398
v -5.748868 2.309215 0.001398
v -5.706765 2.252482 0.001398
v -5.712100 2.243968 0.001513
v -5.771834 2.257241 0.001513
v -5.831569 2.263613 0.001513
v -5.891304 2.257241 0.001513
v -5.900062 2.328008 -0.001916
v -5.853665 2.358826 -0.001916
v -5.879100 2.346784 -0.001916
v -5.809473 2.358826 -0.001916
v -5.763077 2.328008 -0.001916
v -5.784038 2.346784 -0.001916
v -5.853665 2.358826 0.001398
v -5.900062 2.328008 0.001398
v -5.879100 2.346784 0.001398
v -5.763077 2.328008 0.001398
v -5.809473 2.358826 0.001398
v -5.784038 2.346784 0.001398
vn 0.0000 0.0000 1.0000
vn -1.0000 0.0000 0.0000
vn -0.0000 0.0000 -1.0000
vn 1.0000 0.0000 0.0000
vn 0.0000 -1.0000 0.0000
vn 0.0000 1.0000 0.0000
vn -0.2588 0.0000 0.9659
vn 0.2588 0.0000 0.9659
vn -0.9659 0.0000 0.2588
vn -0.9659 0.0000 -0.2588
vn 0.9617 0.0931 -0.2577
vn 0.9659 0.0000 -0.2588
vn 0.9659 0.0000 0.2588
vn 0.8474 -0.5310 0.0000
vn -0.0000 0.0016 1.0000
vn 0.0000 0.0016 -1.0000
vn -0.8475 -0.5309 0.0000
vn 0.6643 -0.7320 0.1510
vn -0.6643 -0.7320 0.1510
vn -0.6643 -0.7320 -0.1510
vn 0.6643 -0.7320 -0.1510
vn 0.6643 0.7320 -0.1510
vn -0.6643 0.7320 -0.1510
vn -0.6643 0.7320 0.1510
vn 0.6643 0.7320 0.1510
vn 0.6671 0.1403 0.7317
vn -0.6671 0.1404 0.7317
vn -0.6671 -0.1404 0.7317
vn 0.6671 -0.1404 0.7317
vn 0.6671 -0.1404 -0.7317
vn -0.6671 -0.1403 -0.7317
vn -0.6671 0.1404 -0.7317
vn 0.6671 0.1403 -0.7317
vn -0.6303 0.5413 -0.5565
vn 0.6303 0.5413 -0.5565
vn 0.6303 0.5413 0.5565
vn -0.6303 0.5413 0.5565
vn -0.6303 -0.5413 -0.5565
vn 0.6303 -0.5413 -0.5565
vn -0.6303 -0.5413 0.5565
vn 0.6303 -0.5413 0.5565
vn 0.0000 0.7462 -0.6657
vn 0.0000 0.7462 0.6657
vn 0.2856 0.6894 0.6657
vn 0.2856 0.6894 -0.6657
vn 0.5276 0.5276 0.6657
vn 0.5276 0.5276 -0.6657
vn 0.6894 0.2856 0.6657
vn 0.6894 0.2856 -0.6657
vn 0.7462 -0.0000 0.6657
vn 0.7462 0.0000 -0.6657
vn 0.6894 -0.2856 0.6657
vn 0.6894 -0.2856 -0.6657
vn 0.5276 -0.5276 0.6657
vn 0.5276 -0.5276 -0.6657
vn 0.2856 -0.6894 0.6657
vn 0.2856 -0.6894 -0.6657
vn -0.0000 -0.7462 0.6657
vn -0.0000 -0.7462 -0.6657
vn -0.2856 -0.6894 0.6657
vn -0.2856 -0.6894 -0.6657
vn -0.5277 -0.5276 0.6657
vn -0.5277 -0.5276 -0.6657
vn -0.6894 -0.2856 0.6657
vn -0.6894 -0.2856 -0.6657
vn -0.7462 -0.0000 0.6657
vn -0.7462 0.0000 -0.6657
vn -0.6894 0.2856 0.6657
vn -0.6894 0.2856 -0.6657
vn -0.5277 0.5276 0.6657
vn -0.5277 0.5276 -0.6657
vn -0.2856 0.6894 -0.6657
vn -0.2856 0.6894 0.6657
vn -0.5276 -0.5276 0.6657
vn -0.5276 -0.5276 -0.6657
vn -0.5276 0.5276 0.6657
vn -0.5276 0.5276 -0.6657
vn 0.3786 -0.6532 0.6557
vn 0.3189 -0.7703 0.5523
vn 0.0000 -0.7703 0.6377
vn 0.0000 -0.6532 0.7572
vn -0.3786 -0.6532 0.6557
vn -0.3189 -0.7703 0.5523
vn -0.5523 -0.7703 0.3189
vn -0.6557 -0.6532 0.3786
vn -0.6377 -0.7703 0.0000
vn -0.7572 -0.6532 0.0000
vn -0.5523 -0.7703 -0.3189
vn -0.6557 -0.6532 -0.3786
vn -0.3189 -0.7703 -0.5523
vn -0.3786 -0.6532 -0.6557
vn 0.0000 -0.7703 -0.6377
vn 0.0000 -0.6532 -0.7572
vn 0.3189 -0.7703 -0.5523
vn 0.3786 -0.6532 -0.6557
vn 0.5523 -0.7703 -0.3189
vn 0.6557 -0.6532 -0.3786
vn 0.6377 -0.7703 -0.0000
vn 0.7572 -0.6532 -0.0000
vn 0.5523 -0.7703 0.3189
vn 0.6557 -0.6532 0.3786
vn -0.3189 0.7703 0.5523
vn -0.3786 0.6532 0.6557
vn -0.6557 0.6532 0.3786
vn -0.5523 0.7703 0.3189
vn 0.3189 0.7703 0.5523
vn 0.3786 0.6532 0.6557
vn 0.0000 0.6532 0.7572
vn 0.0000 0.7703 0.6377
vn -0.7572 0.6532 -0.0000
vn -0.6377 0.7703 0.0000
vn -0.6557 0.6532 -0.3786
vn -0.5523 0.7703 -0.3189
vn -0.3786 0.6532 -0.6557
vn -0.3189 0.7703 -0.5523
vn 0.0000 0.6532 -0.7572
vn 0.0000 0.7703 -0.6377
vn 0.3786 0.6532 -0.6557
vn 0.3189 0.7703 -0.5523
vn 0.6557 0.6532 -0.3786
vn 0.5523 0.7703 -0.3189
vn 0.7572 0.6532 -0.0000
vn 0.6377 0.7703 -0.0000
vn 0.6557 0.6532 0.3786
vn 0.5523 0.7703 0.3189
vn 0.3653 0.6416 0.6745
vn 0.0000 0.6168 0.7871
vn 0.0000 0.7391 0.6736
vn 0.4416 0.2111 0.8720
vn -0.3653 0.6416 0.6745
vn -0.6745 0.6416 0.3653
vn -0.6745 -0.6416 0.3653
vn -0.3653 -0.6416 0.6745
vn -0.6745 0.6416 -0.3653
vn -0.6745 -0.6416 -0.3653
vn -0.8720 -0.2111 -0.4416
vn -0.8720 0.2111 -0.4416
vn -0.8720 0.2111 0.4416
vn -0.8720 -0.2111 0.4416
vn 0.6744 0.6416 -0.3653
vn 0.6744 -0.6416 -0.3653
vn 0.6744 0.6416 0.3654
vn 0.6744 -0.6416 0.3653
vn 0.8720 -0.2111 0.4416
vn 0.8720 0.2111 0.4416
vn 0.8720 0.2111 -0.4416
vn 0.8720 -0.2111 -0.4416
vn -0.4416 -0.2110 0.8720
vn -0.4416 0.2110 0.8720
vn 0.3653 -0.6416 0.6745
vn 0.0000 -0.6168 0.7871
vn 0.4416 -0.2111 0.8720
vn 0.0000 -0.7391 0.6736
vn -0.7871 -0.6168 -0.0000
vn -0.6736 -0.7391 -0.0000
vn -0.7871 0.6168 0.0000
vn -0.6736 0.7391 0.0000
vn 0.7871 -0.6168 -0.0000
vn 0.6736 -0.7391 -0.0000
vn 0.7871 0.6168 -0.0000
vn 0.6736 0.7391 -0.0000
vn -0.6364 -0.5222 -0.5677
vn -0.6364 -0.5222 0.5677
vn 0.2515 -0.6071 -0.7538
vn -0.0000 -0.6571 -0.7538
vn 0.6364 -0.5222 0.5677
vn 0.6364 -0.5222 -0.5677
vn 0.4647 -0.4647 -0.7538
vn -0.2908 0.2387 0.9265
vn -0.6071 -0.2515 0.7538
vn -0.6364 0.5222 0.5677
vn 0.6071 -0.2515 -0.7538
vn -0.4647 -0.4647 0.7538
vn 0.2908 0.2387 -0.9265
vn 0.6364 0.5222 -0.5677
vn -0.2515 -0.6071 0.7538
vn -0.0000 -0.6571 0.7538
vn 0.2515 -0.6071 0.7538
vn 0.4647 -0.4647 0.7538
vn 0.6071 -0.2515 0.7538
vn -0.6071 -0.2515 -0.7538
vn -0.2908 0.2386 -0.9265
vn -0.6364 0.5222 -0.5677
vn 0.2908 0.2387 0.9265
vn 0.6364 0.5222 0.5677
vn -0.4647 -0.4647 -0.7538
vn -0.2515 -0.6071 -0.7538
vn -0.0000 0.7556 -0.6550
vn -0.2463 0.6851 -0.6855
vn -0.2463 0.6851 0.6855
vn -0.0000 0.7556 0.6550
vn 0.1164 -0.7093 -0.6952
vn -0.0000 -0.7290 -0.6846
vn -0.0000 -0.7290 0.6846
vn 0.1164 -0.7093 0.6952
vn -0.1164 -0.7093 -0.6952
vn -0.1164 -0.7093 0.6952
vn 0.3074 -0.7392 -0.5993
vn 0.3074 -0.7392 0.5993
vn -0.3074 -0.7392 -0.5993
vn -0.3074 -0.7392 0.5993
vn 0.8008 0.0305 -0.5981
vn 0.5665 0.4255 -0.7058
vn 0.5665 0.4255 0.7058
vn 0.8008 0.0305 0.5981
vn 0.5351 0.4935 -0.6857
vn 0.5351 0.4935 0.6857
vn 0.2463 0.6851 -0.6855
vn 0.2463 0.6851 0.6855
vn -0.5665 0.4255 -0.7058
vn -0.8008 0.0306 -0.5981
vn -0.8008 0.0306 0.5981
vn -0.5665 0.4255 0.7058
vn 0.4074 0.6144 0.6757
vn 0.4074 0.6144 -0.6757
vn -0.5351 0.4935 -0.6857
vn -0.5351 0.4935 0.6857
vn -0.4074 0.6144 0.6757
vn -0.4074 0.6144 -0.6757
s off
f 5//1 6//1 2//1 1//1
f 6//2 7//2 3//2 2//2
f 7//3 8//3 4//3 3//3
f 8//4 5//4 1//4 4//4
f 1//5 2//5 3//5 4//5
f 8//6 7//6 6//6 5//6
f 21//2 28//2 29//2 27//2 31//2 32//2 30//2 25//2 26//2 24//2 22//2 23//2
f 9//4 13//4 14//4 12//4 19//4 20//4 18//4 16//4 17//4 15//4 10//4 11//4
f 36//1 34//1 64//1 62//1 60//1 58//1 56//1 54//1 52//1 50//1 48//1 46//1 44//1 42//1 40//1 38//1
f 33//3 35//3 37//3 39//3 41//3 43//3 45//3 47//3 49//3 51//3 53//3 55//3 57//3 59//3 61//3 63//3
f 68//1 66//1 96//1 94//1 92//1 90//1 88//1 86//1 84//1 82//1 80//1 78//1 76//1 74//1 72//1 70//1
f 65//3 67//3 69//3 71//3 73//3 75//3 77//3 79//3 81//3 83//3 85//3 87//3 89//3 91//3 93//3 95//3
f 100//6 98//6 120//6 118//6 116//6 114//6 112//6 110//6 108//6 106//6 104//6 102//6
f 97//5 99//5 101//5 103//5 105//5 107//5 109//5 111//5 113//5 115//5 117//5 119//5
f 145//5 143//5 122//5 157//5
f 138//6 140//6 125//6 127//6
f 139//5 137//5 128//5 126//5
f 148//6 150//6 162//6 160//6
f 134//5 156//5 168//5 131//5
f 149//5 147//5 159//5 161//5
f 142//6 144//6 121//6 123//6
f 156//5 153//5 165//5 168//5
f 143//5 141//5 124//5 122//5
f 136//6 138//6 127//6 129//6
f 137//5 135//5 130//5 128//5
f 152//6 154//6 166//6 164//6
f 151//5 149//5 161//5 163//5
f 144//6 146//6 158//6 121//6
f 150//6 152//6 164//6 162//6
f 135//5 134//5 131//5 130//5
f 154//6 155//6 167//6 166//6
f 133//6 136//6 129//6 132//6
f 141//5 139//5 126//5 124//5
f 155//6 133//6 132//6 167//6
f 140//6 142//6 123//6 125//6
f 147//5 145//5 157//5 159//5
f 153//5 151//5 163//5 165//5
f 146//6 148//6 160//6 158//6
f 173//6 172//6 178//6 179//6
f 169//2 170//2 176//2 175//2
f 178//7 175//7 176//7 177//7
f 179//8 178//8 177//8 180//8
f 171//5 174//5 180//5 177//5
f 170//5 171//5 177//5 176//5
f 172//6 169//6 175//6 178//6
f 174//4 173//4 179//4 180//4
f 181//3 182//3 188//3 187//3
f 186//1 185//1 191//1 192//1
f 191//9 189//9 190//9 192//9
f 189//10 187//10 188//10 190//10
f 184//5 186//5 192//5 190//5
f 182//5 184//5 190//5 188//5
f 185//6 183//6 189//6 191//6
f 183//6 181//6 187//6 189//6
f 198//1 197//1 203//1 204//1
f 193//3 194//3 200//3 199//3
f 163//11 161//11 193//11 195//11
f 200//12 202//12 201//12 199//12
f 202//13 204//13 203//13 201//13
f 195//5 193//5 199//5 201//5
f 197//5 195//5 201//5 203//5
f 194//6 196//6 202//6 200//6
f 196//6 198//6 204//6 202//6
f 205//5 206//5 208//5 207//5
f 239//6 223//6 241//6 257//6
f 224//3 223//3 207//3 209//3
f 226//1 225//1 210//1 208//1
f 227//3 224//3 209//3 211//3
f 225//1 228//1 212//1 210//1
f 229//3 227//3 211//3 213//3
f 228//1 230//1 214//1 212//1
f 231//3 229//3 213//3 215//3
f 230//1 232//1 216//1 214//1
f 233//3 231//3 215//3 217//3
f 232//1 234//1 218//1 216//1
f 235//3 233//3 217//3 219//3
f 234//1 236//1 220//1 218//1
f 237//3 235//3 219//3 221//3
f 236//1 238//1 222//1 220//1
f 239//3 237//3 221//3 205//3
f 238//1 240//1 206//1 222//1
f 240//1 226//1 208//1 206//1
f 223//3 239//3 205//3 207//3
f 258//1 256//1 254//1 252//1 250//1 248//1 246//1 243//1 244//1
f 255//3 257//3 241//3 242//3 245//3 247//3 249//3 251//3 253//3
f 226//6 240//6 258//6 244//6
f 265//14 264//14 274//14 275//14
f 275//15 274//15 273//15 288//15 290//15 289//15 272//15 285//15 287//15 286//15 271//15 269//15 270//15 278//15 277//15 276//15
f 265//16 266//16 267//16 268//16 260//16 259//16 261//16 279//16 281//16 280//16 262//16 282//16 284//16 283//16 263//16 264//16
f 259//17 260//17 270//17 269//17
s 1
f 9//18 22//19 24//20 13//21
f 18//22 31//23 27//24 16//25
f 15//26 28//27 21//28 10//29
f 12//30 25//31 30//32 19//33
f 30//32 32//34 20//35 19//33
f 32//34 31//23 18//22 20//35
f 15//26 17//36 29//37 28//27
f 17//36 16//25 27//24 29//37
f 24//20 26//38 14//39 13//21
f 26//38 25//31 12//30 14//39
f 21//28 23//40 11//41 10//29
f 23//40 22//19 9//18 11//41
f 33//42 34//43 36//44 35//45
f 35//45 36//44 38//46 37//47
f 37//47 38//46 40//48 39//49
f 39//49 40//48 42//50 41//51
f 41//51 42//50 44//52 43//53
f 43//53 44//52 46//54 45//55
f 45//55 46//54 48//56 47//57
f 47//57 48//56 50//58 49//59
f 49//59 50//58 52//60 51//61
f 51//61 52//60 54//62 53//63
f 53//63 54//62 56//64 55//65
f 55//65 56//64 58//66 57//67
f 57//67 58//66 60//68 59//69
f 59//69 60//68 62//70 61//71
f 63//72 64//73 34//43 33//42
f 61//71 62//70 64//73 63//72
f 65//42 66//43 68//44 67//45
f 67//45 68//44 70//46 69//47
f 69//47 70//46 72//48 71//49
f 71//49 72//48 74//50 73//51
f 73//51 74//50 76//52 75//53
f 75//53 76//52 78//54 77//55
f 77//55 78//54 80//56 79//57
f 79//57 80//56 82//58 81//59
f 81//59 82//58 84//60 83//61
f 83//61 84//60 86//74 85//75
f 85//75 86//74 88//64 87//65
f 87//65 88//64 90//66 89//67
f 89//67 90//66 92//68 91//69
f 91//69 92//68 94//76 93//77
f 95//72 96//73 66//43 65//42
f 93//77 94//76 96//73 95//72
f 119//78 156//79 134//80 97//81
f 99//82 135//83 137//84 101//85
f 101//85 137//84 139//86 103//87
f 103//87 139//86 141//88 105//89
f 105//89 141//88 143//90 107//91
f 107//91 143//90 145//92 109//93
f 109//93 145//92 147//94 111//95
f 111//95 147//94 149//96 113//97
f 113//97 149//96 151//98 115//99
f 115//99 151//98 153//100 117//101
f 136//102 100//103 102//104 138//105
f 117//101 153//100 156//79 119//78
f 155//106 120//107 98//108 133//109
f 138//105 102//104 104//110 140//111
f 140//111 104//110 106//112 142//113
f 142//113 106//112 108//114 144//115
f 144//115 108//114 110//116 146//117
f 146//117 110//116 112//118 148//119
f 148//119 112//118 114//120 150//121
f 150//121 114//120 116//122 152//123
f 152//123 116//122 118//124 154//125
f 154//125 118//124 120//107 155//106
f 97//81 134//80 135//83 99//82
f 167//126 132//127 172//128 173//129
f 133//109 98//108 100//103 136//102
f 129//130 127//131 128//132 130//133
f 123//134 124//135 182//136 181//137
f 128//132 127//131 185//138 186//139
f 123//134 121//114 122//91 124//135
f 121//114 158//116 157//93 122//91
f 158//116 160//118 159//95 157//93
f 160//118 162//140 161//141 159//95
f 166//142 165//143 197//144 198//145
f 161//141 162//140 194//146 193//147
f 129//130 130//133 170//148 169//149
f 166//142 167//126 168//150 165//143
f 131//151 168//150 174//152 171//153
f 130//133 131//151 171//153 170//148
f 132//127 129//130 169//149 172//128
f 168//150 167//126 173//129 174//152
f 126//154 128//132 186//139 184//155
f 124//135 126//154 184//155 182//136
f 127//131 125//156 183//157 185//138
f 125//156 123//134 181//137 183//157
f 165//143 163//158 195//159 197//144
f 162//140 164//160 196//161 194//146
f 164//160 166//142 198//145 196//161
f 207//162 208//163 210//68 209//69
f 209//69 210//68 212//76 211//77
f 211//77 212//76 214//73 213//72
f 213//72 214//73 216//43 215//42
f 215//42 216//43 218//44 217//45
f 217//45 218//44 220//46 219//47
f 229//164 231//165 249//59 247//57
f 221//49 222//48 206//166 205//167
f 219//47 220//46 222//48 221//49
f 227//168 229//164 247//57 245//55
f 240//169 238//170 256//64 258//171
f 224//172 227//168 245//55 242//53
f 238//170 236//173 254//74 256//64
f 223//174 224//172 242//53 241//175
f 236//173 234//176 252//60 254//74
f 234//176 232//177 250//58 252//60
f 232//177 230//178 248//56 250//58
f 230//178 228//179 246//54 248//56
f 228//179 225//180 243//52 246//54
f 237//181 239//182 257//183 255//65
f 225//180 226//184 244//185 243//52
f 235//186 237//181 255//65 253//75
f 233//187 235//186 253//75 251//61
f 231//165 233//187 251//61 249//59
f 262//188 280//189 285//190 272//191
f 268//192 267//193 277//194 278//195
f 267//193 266//196 276//197 277//194
f 266//196 265//198 275//199 276//197
f 260//200 268//192 278//195 270//201
f 264//202 263//203 273//204 274//205
f 263//203 283//206 288//207 273//204
f 282//208 262//188 272//191 289//209
f 261//210 259//211 269//212 271//213
f 282//208 289//209 290//214 284//215
f 284//215 290//214 288//207 283//206
f 279//216 286//217 287//218 281//219
f 281//219 287//218 285//190 280//189
f 279//216 261//210 271//213 286//217
