# Blender v3.1.2 OBJ File: 'viennese-street-objects.blend'
# www.blender.org
o Light_Ad_Light_Ad_Mesh
v 9.131977 -0.000000 -0.072599
v 9.131977 2.213867 -0.072599
v 9.159760 -0.000000 -0.067073
v 9.159760 2.213867 -0.067073
v 9.183312 -0.000000 -0.051336
v 9.183312 2.213867 -0.051336
v 9.199050 -0.000000 -0.027783
v 9.199050 2.213867 -0.027783
v 9.204576 -0.000000 -0.000000
v 9.204576 2.213867 -0.000000
v 9.199050 -0.000000 0.027782
v 9.199050 2.213867 0.027782
v 9.183312 -0.000000 0.051335
v 9.183312 2.213867 0.051335
v 9.159760 -0.000000 0.067073
v 9.159760 2.213867 0.067073
v 9.131977 -0.000000 0.072599
v 9.131977 2.213867 0.072599
v 9.104195 -0.000000 0.067073
v 9.104195 2.213867 0.067073
v 9.080642 -0.000000 0.051335
v 9.080642 2.213867 0.051335
v 9.064904 -0.000000 0.027782
v 9.064904 2.213867 0.027782
v 9.059378 -0.000000 -0.000000
v 9.059378 2.213867 -0.000000
v 9.064904 -0.000000 -0.027783
v 9.064904 2.213867 -0.027783
v 9.080642 -0.000000 -0.051336
v 9.080642 2.213867 -0.051336
v 9.104195 -0.000000 -0.067073
v 9.104195 2.213867 -0.067073
v 10.383448 2.179789 0.070168
v 10.383448 2.179789 -0.070168
v 9.247345 2.179789 -0.070168
v 9.247345 2.179789 0.070168
v 10.383448 0.227709 0.070168
v 10.383448 0.227709 -0.070168
v 9.247345 0.227709 -0.070168
v 9.247345 0.227709 0.070168
v 9.131979 -0.000000 -0.072599
v 9.131979 2.213867 -0.072599
v 9.159761 -0.000000 -0.067073
v 9.159761 2.213867 -0.067073
v 9.183314 -0.000000 -0.051336
v 9.183314 2.213867 -0.051336
v 9.199052 -0.000000 -0.027783
v 9.199052 2.213867 -0.027783
v 9.204578 -0.000000 -0.000000
v 9.204578 2.213867 -0.000000
v 9.199052 -0.000000 0.027782
v 9.199052 2.213867 0.027782
v 9.183314 -0.000000 0.051335
v 9.183314 2.213867 0.051335
v 9.159761 -0.000000 0.067073
v 9.159761 2.213867 0.067073
v 9.131979 -0.000000 0.072599
v 9.131979 2.213867 0.072599
v 9.104197 -0.000000 0.067073
v 9.104197 2.213867 0.067073
v 9.080644 -0.000000 0.051335
v 9.080644 2.213867 0.051335
v 9.064906 -0.000000 0.027782
v 9.064906 2.213867 0.027782
v 9.059380 -0.000000 -0.000000
v 9.059380 2.213867 -0.000000
v 9.064906 -0.000000 -0.027783
v 9.064906 2.213867 -0.027783
v 9.080644 -0.000000 -0.051336
v 9.080644 2.213867 -0.051336
v 9.104197 -0.000000 -0.067073
v 9.104197 2.213867 -0.067073
v 10.471033 2.213867 -0.067073
v 10.471033 -0.000000 -0.067073
v 10.447480 2.213867 -0.051336
v 10.447480 -0.000000 -0.051336
v 10.431743 2.213867 -0.027783
v 10.431743 -0.000000 -0.027783
v 10.426216 2.213867 -0.000000
v 10.426216 -0.000000 -0.000000
v 10.431743 2.213867 0.027782
v 10.431743 -0.000000 0.027782
v 10.447480 2.213867 0.051335
v 10.447480 -0.000000 0.051335
v 10.471033 2.213867 0.067073
v 10.471033 -0.000000 0.067073
v 10.498816 2.213867 0.072599
v 10.498816 -0.000000 0.072599
v 10.526598 2.213867 0.067073
v 10.526598 -0.000000 0.067073
v 10.550151 2.213867 0.051335
v 10.550151 -0.000000 0.051335
v 10.565888 2.213867 0.027782
v 10.565888 -0.000000 0.027782
v 10.571415 2.213867 -0.000000
v 10.571415 -0.000000 -0.000000
v 10.565888 2.213867 -0.027783
v 10.565888 -0.000000 -0.027783
v 10.550151 2.213867 -0.051336
v 10.550151 -0.000000 -0.051336
v 10.526598 2.213867 -0.067073
v 10.526598 -0.000000 -0.067073
v 10.498816 2.213867 -0.072599
v 10.498816 -0.000000 -0.072599
v 10.471031 2.213867 -0.067073
v 10.471031 -0.000000 -0.067073
v 10.447478 2.213867 -0.051336
v 10.447478 -0.000000 -0.051336
v 10.431741 2.213867 -0.027783
v 10.431741 -0.000000 -0.027783
v 10.426214 2.213867 -0.000000
v 10.426214 -0.000000 -0.000000
v 10.431741 2.213867 0.027782
v 10.431741 -0.000000 0.027782
v 10.447478 2.213867 0.051335
v 10.447478 -0.000000 0.051335
v 10.471031 2.213867 0.067073
v 10.471031 -0.000000 0.067073
v 10.498814 2.213867 0.072599
v 10.498814 -0.000000 0.072599
v 10.526596 2.213867 0.067073
v 10.526596 -0.000000 0.067073
v 10.550149 2.213867 0.051335
v 10.550149 -0.000000 0.051335
v 10.565886 2.213867 0.027782
v 10.565886 -0.000000 0.027782
v 10.571413 2.213867 -0.000000
v 10.571413 -0.000000 -0.000000
v 10.565886 2.213867 -0.027783
v 10.565886 -0.000000 -0.027783
v 10.550149 2.213867 -0.051336
v 10.550149 -0.000000 -0.051336
v 10.526596 2.213867 -0.067073
v 10.526596 -0.000000 -0.067073
v 10.498814 2.213867 -0.072599
v 10.498814 -0.000000 -0.072599
v 9.322861 0.303225 0.070168
v 10.307933 0.303225 0.070168
v 9.322861 2.104273 -0.070168
v 10.307933 2.104273 -0.070168
v 10.307933 2.104273 0.070168
v 10.307933 0.303225 -0.070168
v 9.322861 0.303225 -0.070168
v 9.322861 2.104273 0.070168
v 9.322861 0.303225 0.047285
v 10.307933 0.303225 0.047285
v 9.322861 2.104273 -0.047286
v 10.307933 2.104273 -0.047286
v 10.307933 2.104273 0.047285
v 10.307933 0.303225 -0.047286
v 9.322861 0.303225 -0.047286
v 9.322861 2.104273 0.047285
v 10.383448 2.066718 0.070168
v 10.383448 1.961560 0.070168
v 10.383448 0.459587 0.070168
v 10.383448 0.343318 0.070168
v 10.383448 2.066718 -0.070168
v 10.383448 1.961560 -0.070168
v 10.383448 0.459587 -0.070168
v 10.383448 0.343318 -0.070168
v 9.247345 2.066718 -0.070168
v 9.247345 1.961560 -0.070168
v 9.247345 0.459587 -0.070168
v 9.247345 0.343318 -0.070168
v 9.247345 0.343318 0.070168
v 9.247345 0.459587 0.070168
v 9.247345 1.961560 0.070168
v 9.247345 2.066718 0.070168
v 10.383448 2.057940 0.058454
v 10.383448 1.970338 0.058454
v 10.383448 0.449881 0.058454
v 10.383448 0.353024 0.058454
v 10.383448 2.057940 -0.058454
v 10.383448 1.970338 -0.058454
v 10.383448 0.449881 -0.058454
v 10.383448 0.353024 -0.058454
v 9.247345 2.057940 -0.058454
v 9.247345 1.970338 -0.058454
v 9.247345 0.449881 -0.058454
v 9.247345 0.353024 -0.058454
v 9.247345 0.353024 0.058454
v 9.247345 0.449881 0.058454
v 9.247345 1.970338 0.058454
v 9.247345 2.057940 0.058454
v 10.485785 2.057940 0.058454
v 10.485785 1.970338 0.058454
v 10.485785 0.449881 0.058454
v 10.485785 0.353024 0.058454
v 10.485785 2.057940 -0.058454
v 10.485785 1.970338 -0.058454
v 10.485785 0.449881 -0.058454
v 10.485785 0.353024 -0.058454
v 9.145009 2.057940 -0.058454
v 9.145009 1.970338 -0.058454
v 9.145009 0.449881 -0.058454
v 9.145009 0.353024 -0.058454
v 9.145009 0.353024 0.058454
v 9.145009 0.449881 0.058454
v 9.145009 1.970338 0.058454
v 9.145009 2.057940 0.058454
vn 0.0000 -1.0000 0.0000
vn -1.0000 0.0000 0.0000
vn 1.0000 0.0000 0.0000
vn 0.0000 1.0000 0.0000
vn 0.0000 0.0000 1.0000
vn 0.0000 0.0000 -1.0000
vn 1.0000 -0.0001 0.0000
vn 1.0000 0.0001 0.0000
vn 0.0000 -0.6657 -0.7462
vn 0.0000 0.6657 -0.7462
vn 0.2856 0.6657 -0.6894
vn 0.2856 -0.6657 -0.6894
vn 0.5276 0.6657 -0.5276
vn 0.5276 -0.6657 -0.5276
vn 0.6894 0.6657 -0.2856
vn 0.6894 -0.6657 -0.2856
vn 0.7462 0.6657 -0.0000
vn 0.7462 -0.6657 0.0000
vn 0.6894 0.6657 0.2856
vn 0.6894 -0.6657 0.2856
vn 0.5276 0.6657 0.5276
vn 0.5276 -0.6657 0.5276
vn 0.2856 0.6657 0.6894
vn 0.2856 -0.6657 0.6894
vn 0.0000 0.6657 0.7462
vn 0.0000 -0.6657 0.7462
vn -0.2856 0.6657 0.6894
vn -0.2856 -0.6657 0.6894
vn -0.5276 0.6657 0.5276
vn -0.5276 -0.6657 0.5276
vn -0.6894 0.6657 0.2856
vn -0.6894 -0.6657 0.2856
vn -0.7462 0.6657 -0.0000
vn -0.7462 -0.6657 0.0000
vn -0.6894 0.6657 -0.2856
vn -0.6894 -0.6657 -0.2856
vn -0.5276 0.6657 -0.5276
vn -0.5276 -0.6657 -0.5276
vn -0.2856 -0.6657 -0.6894
vn -0.2856 0.6657 -0.6894
s off
f 1//1 3//1 5//1 7//1 9//1 11//1 13//1 15//1 17//1 19//1 21//1 23//1 25//1 27//1 29//1 31//1
f 41//1 43//1 45//1 47//1 49//1 51//1 53//1 55//1 57//1 59//1 61//1 63//1 65//1 67//1 69//1 71//1
f 165//2 164//2 39//2 40//2
f 104//1 102//1 100//1 98//1 96//1 94//1 92//1 90//1 88//1 86//1 84//1 82//1 80//1 78//1 76//1 74//1
f 143//3 139//3 147//3 151//3
f 144//3 137//3 145//3 152//3
f 136//1 134//1 132//1 130//1 128//1 126//1 124//1 122//1 120//1 118//1 116//1 114//1 112//1 110//1 108//1 106//1
f 40//1 39//1 38//1 37//1
f 33//4 34//4 35//4 36//4
f 160//3 156//3 37//3 38//3
f 133//4 135//4 105//4 107//4 109//4 111//4 113//4 115//4 117//4 119//4 121//4 123//4 125//4 127//4 129//4 131//4
f 4//4 2//4 32//4 30//4 28//4 26//4 24//4 22//4 20//4 18//4 16//4 14//4 12//4 10//4 8//4 6//4
f 138//5 137//5 40//5 37//5
f 140//6 139//6 35//6 34//6
f 141//5 138//5 37//5 156//5 155//5 154//5 153//5 33//5
f 143//6 142//6 38//6 39//6
f 144//5 141//5 33//5 36//5
f 142//6 140//6 34//6 157//6 158//6 159//6 160//6 38//6
f 139//6 143//6 39//6 164//6 163//6 162//6 161//6 35//6
f 137//5 144//5 36//5 168//5 167//5 166//5 165//5 40//5
f 149//5 152//5 145//5 146//5
f 147//6 148//6 150//6 151//6
f 140//2 142//2 150//2 148//2
f 141//1 144//1 152//1 149//1
f 142//4 143//4 151//4 150//4
f 138//2 141//2 149//2 146//2
f 139//1 140//1 148//1 147//1
f 137//4 138//4 146//4 145//4
f 36//2 35//2 161//2 168//2
f 161//2 162//2 178//2 177//2
f 167//2 162//2 163//2 166//2
f 159//7 155//7 171//7 175//7
f 34//3 33//3 153//3 157//3
f 163//2 164//2 180//2 179//2
f 158//3 154//3 155//3 159//3
f 165//2 166//2 182//2 181//2
f 183//5 184//5 200//5 199//5
f 178//1 183//1 199//1 194//1
f 180//1 181//1 197//1 196//1
f 169//5 170//5 186//5 185//5
f 157//7 153//7 169//7 173//7
f 160//3 159//3 175//3 176//3
f 166//2 163//2 179//2 182//2
f 158//3 157//3 173//3 174//3
f 168//2 161//2 177//2 184//2
f 155//3 156//3 172//3 171//3
f 153//3 154//3 170//3 169//3
f 156//8 160//8 176//8 172//8
f 154//8 158//8 174//8 170//8
f 164//2 165//2 181//2 180//2
f 162//2 167//2 183//2 178//2
f 167//2 168//2 184//2 183//2
f 200//2 193//2 194//2 199//2
f 198//2 195//2 196//2 197//2
f 189//3 185//3 186//3 190//3
f 191//3 187//3 188//3 192//3
f 179//6 180//6 196//6 195//6
f 176//6 175//6 191//6 192//6
f 175//4 171//4 187//4 191//4
f 171//5 172//5 188//5 187//5
f 173//4 169//4 185//4 189//4
f 182//4 179//4 195//4 198//4
f 184//4 177//4 193//4 200//4
f 181//5 182//5 198//5 197//5
f 177//6 178//6 194//6 193//6
f 172//1 176//1 192//1 188//1
f 174//6 173//6 189//6 190//6
f 170//1 174//1 190//1 186//1
s 1
f 1//9 2//10 4//11 3//12
f 3//12 4//11 6//13 5//14
f 5//14 6//13 8//15 7//16
f 7//16 8//15 10//17 9//18
f 9//18 10//17 12//19 11//20
f 11//20 12//19 14//21 13//22
f 13//22 14//21 16//23 15//24
f 15//24 16//23 18//25 17//26
f 17//26 18//25 20//27 19//28
f 19//28 20//27 22//29 21//30
f 21//30 22//29 24//31 23//32
f 23//32 24//31 26//33 25//34
f 25//34 26//33 28//35 27//36
f 27//36 28//35 30//37 29//38
f 31//39 32//40 2//10 1//9
f 29//38 30//37 32//40 31//39
f 41//9 42//10 44//11 43//12
f 43//12 44//11 46//13 45//14
f 45//14 46//13 48//15 47//16
f 47//16 48//15 50//17 49//18
f 49//18 50//17 52//19 51//20
f 51//20 52//19 54//21 53//22
f 53//22 54//21 56//23 55//24
f 55//24 56//23 58//25 57//26
f 57//26 58//25 60//27 59//28
f 59//28 60//27 62//29 61//30
f 61//30 62//29 64//31 63//32
f 63//32 64//31 66//33 65//34
f 65//34 66//33 68//35 67//36
f 67//36 68//35 70//37 69//38
f 71//39 72//40 42//10 41//9
f 69//38 70//37 72//40 71//39
f 74//39 73//40 103//10 104//9
f 84//30 83//29 81//31 82//32
f 102//12 101//11 99//13 100//14
f 90//24 89//23 87//25 88//26
f 108//38 107//37 105//40 106//39
f 78//36 77//35 75//37 76//38
f 96//18 95//17 93//19 94//20
f 94//20 93//19 91//21 92//22
f 82//32 81//31 79//33 80//34
f 101//11 103//10 73//40 75//37 77//35 79//33 81//31 83//29 85//27 87//25 89//23 91//21 93//19 95//17 97//15 99//13
f 112//34 111//33 109//35 110//36
f 100//14 99//13 97//15 98//16
f 88//26 87//25 85//27 86//28
f 76//38 75//37 73//40 74//39
f 80//34 79//33 77//35 78//36
f 86//28 85//27 83//29 84//30
f 92//22 91//21 89//23 90//24
f 98//16 97//15 95//17 96//18
f 104//9 103//10 101//11 102//12
f 110//36 109//35 107//37 108//38
f 114//32 113//31 111//33 112//34
f 116//30 115//29 113//31 114//32
f 118//28 117//27 115//29 116//30
f 120//26 119//25 117//27 118//28
f 122//24 121//23 119//25 120//26
f 124//22 123//21 121//23 122//24
f 126//20 125//19 123//21 124//22
f 128//18 127//17 125//19 126//20
f 130//16 129//15 127//17 128//18
f 132//14 131//13 129//15 130//16
f 134//12 133//11 131//13 132//14
f 136//9 135//10 133//11 134//12
f 44//11 42//10 72//40 70//37 68//35 66//33 64//31 62//29 60//27 58//25 56//23 54//21 52//19 50//17 48//15 46//13
f 106//39 105//40 135//10 136//9
